<svg id="Group_15" data-name="Group 15" xmlns="http://www.w3.org/2000/svg" viewBox="437 1091 402 71">
  <defs>
    <style>
      .cls-1 {
        fill: #1abc9c;
        opacity: 0.5;
      }
    </style>
  </defs>
  <circle id="Ellipse_1" data-name="Ellipse 1" class="cls-1" cx="1.5" cy="1.5" r="1.5" transform="translate(437 1091)"/>
  <circle id="Ellipse_1-2" data-name="Ellipse 1" class="cls-1" cx="1.5" cy="1.5" r="1.5" transform="translate(458 1091)"/>
  <circle id="Ellipse_1-3" data-name="Ellipse 1" class="cls-1" cx="1.5" cy="1.5" r="1.5" transform="translate(479 1091)"/>
  <circle id="Ellipse_1-4" data-name="Ellipse 1" class="cls-1" cx="1.5" cy="1.5" r="1.5" transform="translate(500 1091)"/>
  <circle id="Ellipse_1-5" data-name="Ellipse 1" class="cls-1" cx="1.5" cy="1.5" r="1.5" transform="translate(521 1091)"/>
  <circle id="Ellipse_1-6" data-name="Ellipse 1" class="cls-1" cx="1.5" cy="1.5" r="1.5" transform="translate(542 1091)"/>
  <circle id="Ellipse_1-7" data-name="Ellipse 1" class="cls-1" cx="1.5" cy="1.5" r="1.5" transform="translate(563 1091)"/>
  <circle id="Ellipse_1-8" data-name="Ellipse 1" class="cls-1" cx="1.5" cy="1.5" r="1.5" transform="translate(584 1091)"/>
  <circle id="Ellipse_1-9" data-name="Ellipse 1" class="cls-1" cx="1.5" cy="1.5" r="1.5" transform="translate(605 1091)"/>
  <circle id="Ellipse_1-10" data-name="Ellipse 1" class="cls-1" cx="1.5" cy="1.5" r="1.5" transform="translate(626 1091)"/>
  <circle id="Ellipse_1-11" data-name="Ellipse 1" class="cls-1" cx="1.5" cy="1.5" r="1.5" transform="translate(647 1091)"/>
  <circle id="Ellipse_1-12" data-name="Ellipse 1" class="cls-1" cx="1.5" cy="1.5" r="1.5" transform="translate(668 1091)"/>
  <circle id="Ellipse_1-13" data-name="Ellipse 1" class="cls-1" cx="1.5" cy="1.5" r="1.5" transform="translate(689 1091)"/>
  <circle id="Ellipse_1-14" data-name="Ellipse 1" class="cls-1" cx="1.5" cy="1.5" r="1.5" transform="translate(710 1091)"/>
  <circle id="Ellipse_1-15" data-name="Ellipse 1" class="cls-1" cx="1.5" cy="1.5" r="1.5" transform="translate(731 1091)"/>
  <circle id="Ellipse_1-16" data-name="Ellipse 1" class="cls-1" cx="1.5" cy="1.5" r="1.5" transform="translate(752 1091)"/>
  <circle id="Ellipse_1-17" data-name="Ellipse 1" class="cls-1" cx="1.5" cy="1.5" r="1.5" transform="translate(773 1091)"/>
  <circle id="Ellipse_1-18" data-name="Ellipse 1" class="cls-1" cx="1.5" cy="1.5" r="1.5" transform="translate(794 1091)"/>
  <circle id="Ellipse_1-19" data-name="Ellipse 1" class="cls-1" cx="1.5" cy="1.5" r="1.5" transform="translate(815 1091)"/>
  <circle id="Ellipse_1-20" data-name="Ellipse 1" class="cls-1" cx="1.5" cy="1.5" r="1.5" transform="translate(836 1091)"/>
  <circle id="Ellipse_1-21" data-name="Ellipse 1" class="cls-1" cx="1.5" cy="1.5" r="1.5" transform="translate(437 1108)"/>
  <circle id="Ellipse_1-22" data-name="Ellipse 1" class="cls-1" cx="1.5" cy="1.5" r="1.5" transform="translate(458 1108)"/>
  <circle id="Ellipse_1-23" data-name="Ellipse 1" class="cls-1" cx="1.5" cy="1.5" r="1.5" transform="translate(479 1108)"/>
  <circle id="Ellipse_1-24" data-name="Ellipse 1" class="cls-1" cx="1.5" cy="1.5" r="1.5" transform="translate(500 1108)"/>
  <circle id="Ellipse_1-25" data-name="Ellipse 1" class="cls-1" cx="1.5" cy="1.5" r="1.5" transform="translate(521 1108)"/>
  <circle id="Ellipse_1-26" data-name="Ellipse 1" class="cls-1" cx="1.5" cy="1.5" r="1.5" transform="translate(542 1108)"/>
  <circle id="Ellipse_1-27" data-name="Ellipse 1" class="cls-1" cx="1.5" cy="1.5" r="1.5" transform="translate(563 1108)"/>
  <circle id="Ellipse_1-28" data-name="Ellipse 1" class="cls-1" cx="1.5" cy="1.5" r="1.5" transform="translate(584 1108)"/>
  <circle id="Ellipse_1-29" data-name="Ellipse 1" class="cls-1" cx="1.5" cy="1.5" r="1.5" transform="translate(605 1108)"/>
  <circle id="Ellipse_1-30" data-name="Ellipse 1" class="cls-1" cx="1.5" cy="1.5" r="1.5" transform="translate(626 1108)"/>
  <circle id="Ellipse_1-31" data-name="Ellipse 1" class="cls-1" cx="1.5" cy="1.5" r="1.5" transform="translate(647 1108)"/>
  <circle id="Ellipse_1-32" data-name="Ellipse 1" class="cls-1" cx="1.5" cy="1.5" r="1.5" transform="translate(668 1108)"/>
  <circle id="Ellipse_1-33" data-name="Ellipse 1" class="cls-1" cx="1.5" cy="1.5" r="1.5" transform="translate(689 1108)"/>
  <circle id="Ellipse_1-34" data-name="Ellipse 1" class="cls-1" cx="1.5" cy="1.5" r="1.5" transform="translate(710 1108)"/>
  <circle id="Ellipse_1-35" data-name="Ellipse 1" class="cls-1" cx="1.5" cy="1.5" r="1.5" transform="translate(731 1108)"/>
  <circle id="Ellipse_1-36" data-name="Ellipse 1" class="cls-1" cx="1.5" cy="1.5" r="1.5" transform="translate(752 1108)"/>
  <circle id="Ellipse_1-37" data-name="Ellipse 1" class="cls-1" cx="1.5" cy="1.5" r="1.5" transform="translate(773 1108)"/>
  <circle id="Ellipse_1-38" data-name="Ellipse 1" class="cls-1" cx="1.5" cy="1.5" r="1.5" transform="translate(794 1108)"/>
  <circle id="Ellipse_1-39" data-name="Ellipse 1" class="cls-1" cx="1.5" cy="1.5" r="1.5" transform="translate(815 1108)"/>
  <circle id="Ellipse_1-40" data-name="Ellipse 1" class="cls-1" cx="1.5" cy="1.5" r="1.5" transform="translate(836 1108)"/>
  <circle id="Ellipse_1-41" data-name="Ellipse 1" class="cls-1" cx="1.5" cy="1.5" r="1.5" transform="translate(437 1125)"/>
  <circle id="Ellipse_1-42" data-name="Ellipse 1" class="cls-1" cx="1.5" cy="1.5" r="1.5" transform="translate(458 1125)"/>
  <circle id="Ellipse_1-43" data-name="Ellipse 1" class="cls-1" cx="1.5" cy="1.5" r="1.5" transform="translate(479 1125)"/>
  <circle id="Ellipse_1-44" data-name="Ellipse 1" class="cls-1" cx="1.5" cy="1.5" r="1.5" transform="translate(500 1125)"/>
  <circle id="Ellipse_1-45" data-name="Ellipse 1" class="cls-1" cx="1.5" cy="1.5" r="1.5" transform="translate(521 1125)"/>
  <circle id="Ellipse_1-46" data-name="Ellipse 1" class="cls-1" cx="1.5" cy="1.5" r="1.5" transform="translate(542 1125)"/>
  <circle id="Ellipse_1-47" data-name="Ellipse 1" class="cls-1" cx="1.5" cy="1.5" r="1.5" transform="translate(563 1125)"/>
  <circle id="Ellipse_1-48" data-name="Ellipse 1" class="cls-1" cx="1.5" cy="1.5" r="1.5" transform="translate(584 1125)"/>
  <circle id="Ellipse_1-49" data-name="Ellipse 1" class="cls-1" cx="1.5" cy="1.5" r="1.5" transform="translate(605 1125)"/>
  <circle id="Ellipse_1-50" data-name="Ellipse 1" class="cls-1" cx="1.5" cy="1.5" r="1.5" transform="translate(626 1125)"/>
  <circle id="Ellipse_1-51" data-name="Ellipse 1" class="cls-1" cx="1.5" cy="1.5" r="1.5" transform="translate(647 1125)"/>
  <circle id="Ellipse_1-52" data-name="Ellipse 1" class="cls-1" cx="1.5" cy="1.5" r="1.5" transform="translate(668 1125)"/>
  <circle id="Ellipse_1-53" data-name="Ellipse 1" class="cls-1" cx="1.5" cy="1.5" r="1.5" transform="translate(689 1125)"/>
  <circle id="Ellipse_1-54" data-name="Ellipse 1" class="cls-1" cx="1.5" cy="1.5" r="1.5" transform="translate(710 1125)"/>
  <circle id="Ellipse_1-55" data-name="Ellipse 1" class="cls-1" cx="1.5" cy="1.5" r="1.5" transform="translate(731 1125)"/>
  <circle id="Ellipse_1-56" data-name="Ellipse 1" class="cls-1" cx="1.5" cy="1.5" r="1.5" transform="translate(752 1125)"/>
  <circle id="Ellipse_1-57" data-name="Ellipse 1" class="cls-1" cx="1.5" cy="1.5" r="1.5" transform="translate(773 1125)"/>
  <circle id="Ellipse_1-58" data-name="Ellipse 1" class="cls-1" cx="1.5" cy="1.5" r="1.5" transform="translate(794 1125)"/>
  <circle id="Ellipse_1-59" data-name="Ellipse 1" class="cls-1" cx="1.5" cy="1.5" r="1.5" transform="translate(815 1125)"/>
  <circle id="Ellipse_1-60" data-name="Ellipse 1" class="cls-1" cx="1.5" cy="1.5" r="1.5" transform="translate(836 1125)"/>
  <circle id="Ellipse_1-61" data-name="Ellipse 1" class="cls-1" cx="1.5" cy="1.5" r="1.5" transform="translate(437 1142)"/>
  <circle id="Ellipse_1-62" data-name="Ellipse 1" class="cls-1" cx="1.5" cy="1.5" r="1.5" transform="translate(458 1142)"/>
  <circle id="Ellipse_1-63" data-name="Ellipse 1" class="cls-1" cx="1.5" cy="1.5" r="1.5" transform="translate(479 1142)"/>
  <circle id="Ellipse_1-64" data-name="Ellipse 1" class="cls-1" cx="1.5" cy="1.5" r="1.5" transform="translate(500 1142)"/>
  <circle id="Ellipse_1-65" data-name="Ellipse 1" class="cls-1" cx="1.5" cy="1.5" r="1.5" transform="translate(521 1142)"/>
  <circle id="Ellipse_1-66" data-name="Ellipse 1" class="cls-1" cx="1.5" cy="1.5" r="1.5" transform="translate(542 1142)"/>
  <circle id="Ellipse_1-67" data-name="Ellipse 1" class="cls-1" cx="1.5" cy="1.5" r="1.5" transform="translate(563 1142)"/>
  <circle id="Ellipse_1-68" data-name="Ellipse 1" class="cls-1" cx="1.5" cy="1.5" r="1.5" transform="translate(584 1142)"/>
  <circle id="Ellipse_1-69" data-name="Ellipse 1" class="cls-1" cx="1.5" cy="1.5" r="1.5" transform="translate(605 1142)"/>
  <circle id="Ellipse_1-70" data-name="Ellipse 1" class="cls-1" cx="1.5" cy="1.5" r="1.5" transform="translate(626 1142)"/>
  <circle id="Ellipse_1-71" data-name="Ellipse 1" class="cls-1" cx="1.5" cy="1.5" r="1.5" transform="translate(647 1142)"/>
  <circle id="Ellipse_1-72" data-name="Ellipse 1" class="cls-1" cx="1.5" cy="1.5" r="1.5" transform="translate(668 1142)"/>
  <circle id="Ellipse_1-73" data-name="Ellipse 1" class="cls-1" cx="1.5" cy="1.5" r="1.5" transform="translate(689 1142)"/>
  <circle id="Ellipse_1-74" data-name="Ellipse 1" class="cls-1" cx="1.5" cy="1.5" r="1.5" transform="translate(710 1142)"/>
  <circle id="Ellipse_1-75" data-name="Ellipse 1" class="cls-1" cx="1.5" cy="1.5" r="1.5" transform="translate(731 1142)"/>
  <circle id="Ellipse_1-76" data-name="Ellipse 1" class="cls-1" cx="1.5" cy="1.5" r="1.5" transform="translate(752 1142)"/>
  <circle id="Ellipse_1-77" data-name="Ellipse 1" class="cls-1" cx="1.5" cy="1.5" r="1.5" transform="translate(773 1142)"/>
  <circle id="Ellipse_1-78" data-name="Ellipse 1" class="cls-1" cx="1.5" cy="1.5" r="1.5" transform="translate(794 1142)"/>
  <circle id="Ellipse_1-79" data-name="Ellipse 1" class="cls-1" cx="1.5" cy="1.5" r="1.5" transform="translate(815 1142)"/>
  <circle id="Ellipse_1-80" data-name="Ellipse 1" class="cls-1" cx="1.5" cy="1.5" r="1.5" transform="translate(836 1142)"/>
  <circle id="Ellipse_1-81" data-name="Ellipse 1" class="cls-1" cx="1.5" cy="1.5" r="1.5" transform="translate(437 1159)"/>
  <circle id="Ellipse_1-82" data-name="Ellipse 1" class="cls-1" cx="1.5" cy="1.5" r="1.5" transform="translate(458 1159)"/>
  <circle id="Ellipse_1-83" data-name="Ellipse 1" class="cls-1" cx="1.5" cy="1.5" r="1.5" transform="translate(479 1159)"/>
  <circle id="Ellipse_1-84" data-name="Ellipse 1" class="cls-1" cx="1.5" cy="1.5" r="1.5" transform="translate(500 1159)"/>
  <circle id="Ellipse_1-85" data-name="Ellipse 1" class="cls-1" cx="1.5" cy="1.5" r="1.5" transform="translate(521 1159)"/>
  <circle id="Ellipse_1-86" data-name="Ellipse 1" class="cls-1" cx="1.5" cy="1.5" r="1.5" transform="translate(542 1159)"/>
  <circle id="Ellipse_1-87" data-name="Ellipse 1" class="cls-1" cx="1.5" cy="1.5" r="1.5" transform="translate(563 1159)"/>
  <circle id="Ellipse_1-88" data-name="Ellipse 1" class="cls-1" cx="1.5" cy="1.5" r="1.5" transform="translate(584 1159)"/>
  <circle id="Ellipse_1-89" data-name="Ellipse 1" class="cls-1" cx="1.5" cy="1.5" r="1.5" transform="translate(605 1159)"/>
  <circle id="Ellipse_1-90" data-name="Ellipse 1" class="cls-1" cx="1.5" cy="1.5" r="1.5" transform="translate(626 1159)"/>
  <circle id="Ellipse_1-91" data-name="Ellipse 1" class="cls-1" cx="1.5" cy="1.5" r="1.5" transform="translate(647 1159)"/>
  <circle id="Ellipse_1-92" data-name="Ellipse 1" class="cls-1" cx="1.5" cy="1.5" r="1.5" transform="translate(668 1159)"/>
  <circle id="Ellipse_1-93" data-name="Ellipse 1" class="cls-1" cx="1.5" cy="1.5" r="1.5" transform="translate(689 1159)"/>
  <circle id="Ellipse_1-94" data-name="Ellipse 1" class="cls-1" cx="1.5" cy="1.5" r="1.5" transform="translate(710 1159)"/>
  <circle id="Ellipse_1-95" data-name="Ellipse 1" class="cls-1" cx="1.5" cy="1.5" r="1.5" transform="translate(731 1159)"/>
  <circle id="Ellipse_1-96" data-name="Ellipse 1" class="cls-1" cx="1.5" cy="1.5" r="1.5" transform="translate(752 1159)"/>
  <circle id="Ellipse_1-97" data-name="Ellipse 1" class="cls-1" cx="1.5" cy="1.5" r="1.5" transform="translate(773 1159)"/>
  <circle id="Ellipse_1-98" data-name="Ellipse 1" class="cls-1" cx="1.5" cy="1.5" r="1.5" transform="translate(794 1159)"/>
  <circle id="Ellipse_1-99" data-name="Ellipse 1" class="cls-1" cx="1.5" cy="1.5" r="1.5" transform="translate(815 1159)"/>
  <circle id="Ellipse_1-100" data-name="Ellipse 1" class="cls-1" cx="1.5" cy="1.5" r="1.5" transform="translate(836 1159)"/>
</svg>
