<svg xmlns="http://www.w3.org/2000/svg" viewBox="0 0 122.78 69.32"><defs><style>.cls-1{fill:#e6e7e8;}.cls-2{fill:#231f20;}.cls-3{fill:#fff;}</style></defs><title>Asset 1</title><g id="Layer_2" data-name="Layer 2"><g id="Layer_1-2" data-name="Layer 1"><path class="cls-1" d="M62.66,54.93c5.4,5.4,11.43,11.42,13.57,13.57h0l.81.81L80.14,67l1-1,2.2-3L68.92,48.66ZM74,57.07a1.35,1.35,0,0,1,1.88,0l6,6-1.6,2.16L74,59A1.35,1.35,0,0,1,74,57.07Zm-1,2.84,6.3,6.31-2.15,1.59-6-6A1.33,1.33,0,1,1,73,59.91Z"/><path class="cls-1" d="M37.41,30.59l-.17,2.66L40,33.09l-.16,2.73,2.73-.17-.17,2.73L45,38.22l-.16,2.67s3.18-.56,3.41-.33l.91.91,3.63,3.63.88.88L60,39.71,59.23,39,55.47,35.2l-.91-.91c-.23-.23.17-3.71.17-3.71l-2.66.17.16-2.67-2.73.17.17-2.73-2.74.16L47.1,23l-2.67.16.17-2.66-2.73.16L42,17.88,39.37,18l.16-2.66-2.73.16L37,12.81,34.3,13l.16-2.66-2.73.16.16-2.73-2.66.17.16-2.67-2.73.17L26.3,5a5.11,5.11,0,0,0-1.52-1c-.05,0-1.47,1.34-2.54,2.34l.39.36L53.14,37.22a1.47,1.47,0,0,1,0,2.07h0a1.47,1.47,0,0,1-2.07,0L20.56,8.78l-.36-.39c-.93,1-2.07,2.27-2.12,2.32a5,5,0,0,0,1,1.52l.58.58-.17,2.73,2.67-.16L22,18.05l2.73-.17-.17,2.73,2.67-.16-.16,2.67L29.84,23l-.17,2.73,2.67-.16-.16,2.66L34.91,28l-.17,2.73Z"/><path class="cls-1" d="M100.81,15.16l2.66.16-.16-2.73.36-.36a4.93,4.93,0,0,0,1-1.52l-2.34-2.55c-.15.18-.3.34-.36.4L71.49,39.07a1.47,1.47,0,0,1-2.07,0h0a1.47,1.47,0,0,1,0-2.07L99.93,6.49l.39-.36C99.32,5.2,98.05,4.06,98,4a5.11,5.11,0,0,0-1.52,1l-.58.59-2.73-.17.16,2.67L90.66,8l.17,2.73-2.73-.17.16,2.67L85.6,13l.16,2.73L83,15.6l.16,2.67-2.66-.17.16,2.74L78,20.67l.16,2.67-2.66-.17.16,2.73-2.73-.16.17,2.73-2.73-.17L70.49,31l-2.67-.16s.56,3.18.33,3.41l-.91.91-3.63,3.63S44.43,58,40.21,62.16h0l-.82.82,2.29,3.1,1,1,3,2.2L69.75,45.16l3.76-3.76.91-.91c.23-.23,3.71.17,3.71.17L78,38l2.66.16-.17-2.73,2.74.17L83,32.86l2.73.17-.16-2.67,2.66.17L88.1,27.8l2.73.16-.16-2.66,2.66.16-.16-2.73,2.73.16-.16-2.66,2.66.16-.16-2.73,2.73.16ZM40.9,63.1l6-6A1.33,1.33,0,0,1,48.8,59l-6.31,6.3Zm2.57,3.1,6.29-6.29a1.33,1.33,0,1,1,1.88,1.88l-6,6Z"/><path class="cls-2" d="M24.31,31.12V45.27l-1.76,1.41H15.48l-1.79-1.41V31.12l1.79-1.39h7.07Zm-4,1.47H17.63l-.42.31V43.54l.42.31h2.69l.41-.31V32.9Z"/><path class="cls-2" d="M64.44,46.68H53.82l.44-1.07V30.83l-.44-1.1h4.39l-.42,1.1V43.54l.42.31h5.42l1.45-.31Z"/><path class="cls-2" d="M66.56,46.68,67,45.59V30.8l-.45-1.07H77.18l.64,3.13-1.45-.34H70.92l-.42.34v3.5l.42.33h1.79l1.37-.36v3.55l-1.37-.36H70.92l-.42.31v3.66l.42.33h5.45l1.45-.33-.64,3.19Z"/><path class="cls-2" d="M97.94,32.9l-1.51-.31H93.78l-.4.31V45.61l.45,1.07H89.39l.45-1.07V32.9l-.42-.31H86.71l-1.46.31.65-3.17H97.27Z"/><path class="cls-2" d="M110.4,46.68H106l.31-.67-.79-2.59-.41-.33h-3.5l-.42.33L100.37,46l.31.67H96.24l.69-1.14,4.36-14.82-.39-1h4.84l-.39,1,4.35,14.82Zm-8.1-6.44h2.07l.33-.25-1.37-5.42L102,40Z"/><path class="cls-2" d="M9.28,29.73H0L.39,30.8V45.59L0,46.68H9.28l1.79-1.41V31.12ZM7.49,43.49l-.42.33H3.34l.6-1.06V33.59l-.6-1.07H7.07l.42.34Z"/><path class="cls-2" d="M121,29.73h-9.27l.44,1.1V45.61l-.44,1.07h4.38l-.44-1.07v-5l.41-.33H121l1.79-1.43V31.12Zm-1.79,7.41-.41.31h-2.72l-.41-.31V33.65l-.61-1.06h3.74l.41.31Z"/><path class="cls-2" d="M51.42,31.12l-1.79-1.39H40.35l.45,1.07V45.59l-.45,1.09h9.28l1.79-1.41V39.48L49.6,38.05l1.82-1.4ZM47.87,43.49l-.42.33H43.72l.6-1.06V39.81l.42-.33h2.71l.42.33Zm0-7.16-.42.32H44.74l-.42-.32V33.59l-.6-1.07h3.73l.42.34Z"/><polygon class="cls-2" points="33.78 29.73 34.23 30.83 34.23 43.53 33.81 43.85 30.1 43.85 30.65 42.87 30.65 30.83 31.1 29.73 26.71 29.73 27.16 30.83 27.16 45.27 28.89 46.68 35.99 46.68 37.78 45.27 37.78 30.83 38.23 29.73 33.78 29.73"/><path class="cls-2" d="M68.2,27.11h52.66L118.5,25H70.63A12.48,12.48,0,0,1,68.2,27.11Z"/><path class="cls-2" d="M52.15,25H4.28l-2.36,2.1H54.58A12.78,12.78,0,0,1,52.15,25Z"/><path class="cls-3" d="M70.49,16.74a1.21,1.21,0,0,1,1.15-1.21,10.32,10.32,0,0,0-20.5,0,1.21,1.21,0,0,1,1.15,1.21A1.23,1.23,0,0,1,51.14,18a10.32,10.32,0,0,0,20.5,0A1.23,1.23,0,0,1,70.49,16.74Z"/><path class="cls-2" d="M61.39,27.51A10.76,10.76,0,0,1,50.7,18l-.06-.47.47,0a.77.77,0,0,0,0-1.54l-.47,0,.06-.47a10.76,10.76,0,0,1,21.38,0l.06.47-.47,0a.77.77,0,0,0,0,1.54l.47,0-.06.47A10.75,10.75,0,0,1,61.39,27.51Zm-9.75-9.2a9.87,9.87,0,0,0,19.5,0,1.66,1.66,0,0,1,0-3.13,9.87,9.87,0,0,0-19.5,0,1.66,1.66,0,0,1,0,3.13Z"/><polygon class="cls-2" points="62.01 21.53 60.79 21.53 60.79 22.75 58.57 22.75 59.57 23.96 63.21 23.96 64.21 22.75 62.01 22.75 62.01 21.53"/><path class="cls-2" d="M64.52,13.18H62v-2h3.73a.16.16,0,0,1,.15.16v.79H67.1v-.79A1.38,1.38,0,0,0,65.73,10H57.07a1.38,1.38,0,0,0-1.38,1.38v.79h1.22v-.79a.16.16,0,0,1,.16-.16h3.72v2H55.12L56,14.4h1.41v5.3H56l-.91,1.22h9.4a3.15,3.15,0,0,0,3.14-3.15V16.32A3.15,3.15,0,0,0,64.52,13.18Zm1.93,4.59a1.94,1.94,0,0,1-1.93,1.93H62V15H60.79v4.7H58.66V14.4h5.86a1.93,1.93,0,0,1,1.93,1.92Z"/><polygon class="cls-2" points="120.86 49.31 1.92 49.31 4.28 51.4 32.23 51.4 28.04 59.55 57.98 59.55 61.39 62.67 64.8 59.55 94.74 59.55 90.55 51.4 118.5 51.4 120.86 49.31"/><path class="cls-3" d="M36.58,56.61V52.39a.12.12,0,0,1,0-.09.18.18,0,0,1,.09,0h2.64a.13.13,0,0,1,.09,0,.12.12,0,0,1,0,.09v.69a.16.16,0,0,1,0,.09.12.12,0,0,1-.09,0H37.58V54H39a.18.18,0,0,1,.09,0,.11.11,0,0,1,0,.08v.7a.11.11,0,0,1-.12.12H37.58v.86h1.76a.13.13,0,0,1,.09,0,.11.11,0,0,1,0,.08v.7a.16.16,0,0,1,0,.09.12.12,0,0,1-.09,0H36.7l-.09,0A.16.16,0,0,1,36.58,56.61Z"/><path class="cls-3" d="M41,56.61v-4.3a.16.16,0,0,1,0-.08.12.12,0,0,1,.09,0h.16l2.54,2.45h0V52.39a.1.1,0,0,1,0-.09.12.12,0,0,1,.08,0h.77a.12.12,0,0,1,.08,0,.12.12,0,0,1,0,.09v4.29a.09.09,0,0,1,0,.08.12.12,0,0,1-.08,0h-.1a.13.13,0,0,1-.09,0L42,54.23h0v2.38a.16.16,0,0,1,0,.09.12.12,0,0,1-.09,0h-.76a.1.1,0,0,1-.08,0A.12.12,0,0,1,41,56.61Z"/><path class="cls-3" d="M47,56.13a2.21,2.21,0,0,1-.67-1.63,2.29,2.29,0,0,1,2.29-2.29,2.21,2.21,0,0,1,.82.16,2.42,2.42,0,0,1,.74.44.1.1,0,0,1,0,.17l-.5.53a.14.14,0,0,1-.18,0,1.25,1.25,0,0,0-1.72.07,1.26,1.26,0,0,0-.37.91,1.26,1.26,0,0,0,1.26,1.27,1.48,1.48,0,0,0,.57-.1V55.3h-.4l-.09,0a.11.11,0,0,1,0-.08v-.63c0-.09,0-.13.12-.13h1.28a.12.12,0,0,1,.08,0,.1.1,0,0,1,0,.09v1.71a.11.11,0,0,1-.06.1l-.21.12a2.63,2.63,0,0,1-.55.18,2.91,2.91,0,0,1-.82.12A2.2,2.2,0,0,1,47,56.13Z"/><path class="cls-3" d="M51.84,56.61V52.39a.12.12,0,0,1,0-.09s0,0,.08,0h.77a.12.12,0,0,1,.08,0,.12.12,0,0,1,0,.09v4.22a.14.14,0,0,1-.12.12H52a.1.1,0,0,1-.08,0A.09.09,0,0,1,51.84,56.61Z"/><path class="cls-3" d="M54.65,56.61v-4.3a.2.2,0,0,1,0-.08.12.12,0,0,1,.09,0h.15l2.55,2.45h0V52.39a.12.12,0,0,1,0-.09.18.18,0,0,1,.09,0h.77a.12.12,0,0,1,.08,0,.18.18,0,0,1,0,.09v4.29a.14.14,0,0,1-.12.12h-.11a.12.12,0,0,1-.08,0l-2.52-2.53h0v2.38a.16.16,0,0,1,0,.09.14.14,0,0,1-.09,0h-.76a.14.14,0,0,1-.12-.12Z"/><path class="cls-3" d="M60.29,56.61V52.39a.12.12,0,0,1,0-.09.13.13,0,0,1,.09,0h2.64a.18.18,0,0,1,.09,0,.12.12,0,0,1,0,.09v.69a.16.16,0,0,1,0,.09l-.09,0H61.28V54h1.46a.12.12,0,0,1,.08,0,.09.09,0,0,1,0,.08v.7a.12.12,0,0,1,0,.09.11.11,0,0,1-.08,0H61.28v.86h1.77a.18.18,0,0,1,.09,0,.11.11,0,0,1,0,.08v.7a.16.16,0,0,1,0,.09l-.09,0H60.41a.12.12,0,0,1-.09,0A.16.16,0,0,1,60.29,56.61Z"/><path class="cls-3" d="M64.73,56.61V52.39a.12.12,0,0,1,0-.09.18.18,0,0,1,.09,0h2.64a.13.13,0,0,1,.09,0,.12.12,0,0,1,0,.09v.69a.16.16,0,0,1,0,.09.12.12,0,0,1-.09,0H65.72V54h1.46a.18.18,0,0,1,.09,0,.11.11,0,0,1,0,.08v.7a.16.16,0,0,1,0,.09l-.09,0H65.72v.86h1.77a.13.13,0,0,1,.09,0,.11.11,0,0,1,0,.08v.7a.16.16,0,0,1,0,.09.12.12,0,0,1-.09,0H64.85l-.09,0A.16.16,0,0,1,64.73,56.61Z"/><path class="cls-3" d="M69.17,56.61V52.39a.1.1,0,0,1,0-.09.12.12,0,0,1,.08,0H71.2a1.34,1.34,0,0,1,1,.41,1.29,1.29,0,0,1,.41,1,1.2,1.2,0,0,1-.26.77,1.61,1.61,0,0,1-.68.52l.87,1.62a.11.11,0,0,1,0,.12.13.13,0,0,1-.12.06h-.84a.11.11,0,0,1-.11-.06L70.61,55h-.44v1.63a.11.11,0,0,1,0,.08.1.1,0,0,1-.09,0h-.76a.11.11,0,0,1-.08,0A.12.12,0,0,1,69.17,56.61Zm1-2.44h1a.46.46,0,0,0,.34-.15.48.48,0,0,0,.14-.36.48.48,0,0,0-.48-.48h-1Z"/><path class="cls-3" d="M74.15,56.61V52.39a.12.12,0,0,1,0-.09.12.12,0,0,1,.08,0H75a.12.12,0,0,1,.08,0,.12.12,0,0,1,0,.09v4.22a.14.14,0,0,1-.12.12h-.77a.14.14,0,0,1-.12-.12Z"/><path class="cls-3" d="M77,56.61v-4.3a.12.12,0,0,1,0-.08.11.11,0,0,1,.08,0h.16l2.55,2.45h0V52.39a.12.12,0,0,1,0-.09.15.15,0,0,1,.09,0h.76a.13.13,0,0,1,.09,0,.18.18,0,0,1,0,.09v4.29a.12.12,0,0,1,0,.08.13.13,0,0,1-.09,0h-.1a.12.12,0,0,1-.08,0L78,54.23h0v2.38a.16.16,0,0,1,0,.09l-.09,0h-.76a.14.14,0,0,1-.12-.12Z"/><path class="cls-3" d="M82.94,56.13a2.24,2.24,0,0,1-.66-1.63,2.29,2.29,0,0,1,2.29-2.29,2.13,2.13,0,0,1,.81.16,2.35,2.35,0,0,1,.75.44.1.1,0,0,1,0,.17l-.51.53a.12.12,0,0,1-.17,0,1.25,1.25,0,0,0-1.72.07,1.26,1.26,0,0,0-.37.91,1.22,1.22,0,0,0,.37.9,1.19,1.19,0,0,0,.89.37,1.48,1.48,0,0,0,.57-.1V55.3h-.4a.12.12,0,0,1-.09,0,.11.11,0,0,1,0-.08v-.63c0-.09,0-.13.12-.13h1.28a.12.12,0,0,1,.08,0,.13.13,0,0,1,0,.09v1.71a.12.12,0,0,1,0,.1l-.21.12a2.63,2.63,0,0,1-.55.18,3,3,0,0,1-.82.12A2.24,2.24,0,0,1,82.94,56.13Z"/><path class="cls-2" d="M50.19,22.87a.11.11,0,0,1,0,.11.08.08,0,0,1-.09,0l-4.27-.34a.09.09,0,0,1-.09-.07l0-.05a.08.08,0,0,1,0-.11l3-3a.09.09,0,0,1,.1,0s.06,0,.08.08l.22.6a.2.2,0,0,1-.07.23l-.35.36.55,1.47.5,0a.19.19,0,0,1,.2.15ZM48.41,22l-.3-.82-.74.75h0Z"/><path class="cls-2" d="M48.6,18.84l-3.86-.71a.1.1,0,0,1-.09-.11v-.09a.11.11,0,0,1,.06-.1l2.51-1.29h0l-2.46-1.38a.1.1,0,0,1-.06-.1V15a.09.09,0,0,1,.1-.1l3.88-.59a.12.12,0,0,1,.09,0,.11.11,0,0,1,0,.08v.68a.09.09,0,0,1,0,.07l-.06,0-1.79.23h0l1.85,1a.1.1,0,0,1,.07.1v.1a.1.1,0,0,1-.06.1l-1.88.94h0l1.77.28a.1.1,0,0,1,.09.12v.68a.11.11,0,0,1,0,.08A.12.12,0,0,1,48.6,18.84Z"/><path class="cls-2" d="M49.09,13.23l-3.56-1.38a.09.09,0,0,1-.06-.06.11.11,0,0,1,0-.08l.86-2.22a.09.09,0,0,1,.06-.06.08.08,0,0,1,.08,0l.59.23a.09.09,0,0,1,.06.06.11.11,0,0,1,0,.08l-.58,1.49.67.26.47-1.22.06-.07h.09l.58.23a.09.09,0,0,1,.06.06.08.08,0,0,1,0,.08L48,11.85l.72.28.58-1.49a.09.09,0,0,1,.06-.06h.08l.59.22s0,0,.06.06a.14.14,0,0,1,0,.09l-.86,2.22a.09.09,0,0,1-.06.06Z"/><path class="cls-2" d="M50.6,9.81l-3-2.4a.12.12,0,0,1,0-.08.13.13,0,0,1,0-.08l1.08-1.34a1.28,1.28,0,0,1,1.76-.19,1.14,1.14,0,0,1,.39.62,1.49,1.49,0,0,1,0,.78l1.63.3s.08,0,.09.07a.11.11,0,0,1,0,.12l-.48.59a.1.1,0,0,1-.1,0l-1.67-.37L50,8.18l1.14.93a.08.08,0,0,1,0,.07.08.08,0,0,1,0,.08l-.43.53a.09.09,0,0,1-.08,0A.08.08,0,0,1,50.6,9.81ZM49.46,7.72,50,7.06a.38.38,0,0,0,.09-.33.46.46,0,0,0-.17-.3.41.41,0,0,0-.32-.1.49.49,0,0,0-.3.16l-.53.66Z"/><path class="cls-2" d="M53.51,6.7,51.26,3.63a.11.11,0,0,1,0-.08s0-.06,0-.07l.56-.41a.11.11,0,0,1,.08,0s.06,0,.07,0l2.26,3.07a.13.13,0,0,1,0,.09.08.08,0,0,1,0,.07l-.55.41a.11.11,0,0,1-.08,0A.08.08,0,0,1,53.51,6.7Z"/><path class="cls-2" d="M55.54,4.86a2,2,0,0,1-1.1-1.14,2,2,0,0,1,0-1.59A2,2,0,0,1,55.61,1,2,2,0,0,1,57.1,1c.07,0,.1.08.07.15l-.25.59a.1.1,0,0,1-.14.06,1.13,1.13,0,0,0-.83,0,1.05,1.05,0,0,0-.62.62,1.22,1.22,0,0,0,0,.9,1.2,1.2,0,0,0,.6.65,1.08,1.08,0,0,0,.88,0,1.14,1.14,0,0,0,.62-.54.1.1,0,0,1,.14-.05l.59.28a.1.1,0,0,1,.06.15,2,2,0,0,1-1.1,1A2,2,0,0,1,55.54,4.86Z"/><path class="cls-2" d="M59,4.17a.1.1,0,0,1-.09,0,.08.08,0,0,1,0-.1l1.62-4A.11.11,0,0,1,60.61,0h.06a.1.1,0,0,1,.1.06l2,3.79a.08.08,0,0,1,0,.1.11.11,0,0,1-.1,0L62,4a.21.21,0,0,1-.2-.13l-.23-.45L60,3.53,59.84,4a.2.2,0,0,1-.2.14Zm1.33-1.44.88,0-.49-.93h0Z"/><path class="cls-2" d="M63.57,4,64.71.32a.09.09,0,0,1,.06-.06.08.08,0,0,1,.08,0l.14,0,1.54,2.8h0l.61-1.95a.18.18,0,0,1,0-.07.14.14,0,0,1,.09,0l.66.21a.1.1,0,0,1,.06.05.14.14,0,0,1,0,.09l-1.15,3.7,0,.06h-.09l-.08,0a.18.18,0,0,1-.07-.05L65.08,2.24h0l-.63,2.05a.13.13,0,0,1-.06.07H64.3l-.66-.2a.17.17,0,0,1-.06-.06A.11.11,0,0,1,63.57,4Z"/><path class="cls-2" d="M69.38,6.46l3.31-2.12a.1.1,0,0,1,.14,0l.06.06a.11.11,0,0,1,0,.12L72,7.2h0l2.74-.68a.08.08,0,0,1,.11,0l.07.07a.1.1,0,0,1,0,.14L72.45,9.85a.1.1,0,0,1-.16,0l-.46-.5a.11.11,0,0,1,0-.07.08.08,0,0,1,0-.07L73,7.82h0l-2,.54a.11.11,0,0,1-.11,0l-.07-.08a.11.11,0,0,1,0-.12l.73-2h0L70,7.15a.1.1,0,0,1-.14,0l-.46-.51a.11.11,0,0,1,0-.08A.14.14,0,0,1,69.38,6.46Z"/><path class="cls-2" d="M72.62,10.5a.09.09,0,0,1,0-.1.1.1,0,0,1,.1,0l4.27.3a.1.1,0,0,1,.09.06l0,.06a.09.09,0,0,1,0,.11L74.1,14a.1.1,0,0,1-.1,0,.12.12,0,0,1-.07-.07l-.23-.6a.23.23,0,0,1,.06-.24l.35-.36-.56-1.46-.5,0a.22.22,0,0,1-.21-.14Zm1.79.81.31.82.73-.75h0Z"/><path class="cls-2" d="M74.17,14.79l3.81-.1a.1.1,0,0,1,.11.11l0,1.4a1.93,1.93,0,0,1-.56,1.44,1.89,1.89,0,0,1-1.4.63,2,2,0,0,1-2.07-2l0-1.4a.12.12,0,0,1,.11-.11Zm.76.88,0,.55a1.07,1.07,0,0,0,.36.8A1.22,1.22,0,0,0,77,17a1.06,1.06,0,0,0,.32-.82v-.55Z"/><path class="cls-2" d="M74,19.37l3.64,1.13a.18.18,0,0,1,.07.05.14.14,0,0,1,0,.09L77,22.91S77,23,77,23a.11.11,0,0,1-.08,0l-.6-.19s-.06,0-.07-.05a.12.12,0,0,1,0-.08l.47-1.53L76,20.93l-.39,1.25a.08.08,0,0,1,0,.07.11.11,0,0,1-.08,0l-.6-.19A.12.12,0,0,1,74.8,22a.25.25,0,0,1,0-.08l.39-1.26-.74-.23L74,22a.15.15,0,0,1,0,.06.14.14,0,0,1-.09,0l-.6-.19s0,0-.06-.05a.08.08,0,0,1,0-.08l.7-2.28a.13.13,0,0,1,.06-.07Z"/><path class="cls-3" d="M62.06,60.36a.71.71,0,0,0-.31-.85.7.7,0,0,0-.89.14Z"/><path class="cls-3" d="M61.92,60.59l-1.2-.71a.71.71,0,0,0,.31.85A.7.7,0,0,0,61.92,60.59Z"/></g></g></svg>